<svg xmlns="http://www.w3.org/2000/svg" width="468.854" height="481.01" viewBox="0 0 468.854 481.01">
  <defs>
    <style>
      .cls-1 {
        fill: #ef8688;
      }

      .cls-2 {
        fill: #ffda40;
      }

      .cls-3 {
        fill: #e20d0f;
      }
    </style>
  </defs>
  <g id="biglogo" transform="translate(-222.192 -412.024)">
    <path id="Rectangle_4" data-name="Rectangle 4" class="cls-1" d="M0,0H312.244a60,60,0,0,1,60,60v75.223a0,0,0,0,1,0,0H60a60,60,0,0,1-60-60V0A0,0,0,0,1,0,0Z" transform="translate(332.212 797.417) rotate(-45)"/>
    <ellipse id="Ellipse_1" data-name="Ellipse 1" class="cls-2" cx="90.402" cy="91.162" rx="90.402" ry="91.162" transform="translate(340.701 412.024)"/>
    <path id="Rectangle_3" data-name="Rectangle 3" class="cls-3" d="M50,0h80.143a2,2,0,0,1,2,2V130.143a2,2,0,0,1-2,2H2a2,2,0,0,1-2-2V50A50,50,0,0,1,50,0Z" transform="translate(315.631 594.443) rotate(45)"/>
  </g>
</svg>
